<?xml version="1.0" encoding="utf-8"?>
<!-- Generator: Adobe Illustrator 16.0.0, SVG Export Plug-In . SVG Version: 6.00 Build 0)  -->
<!DOCTYPE svg PUBLIC "-//W3C//DTD SVG 1.1//EN" "http://www.w3.org/Graphics/SVG/1.1/DTD/svg11.dtd">
<svg version="1.1" id="Layer_1" xmlns="http://www.w3.org/2000/svg" xmlns:xlink="http://www.w3.org/1999/xlink" x="0px" y="0px"
	 width="48px" height="48px" viewBox="0 0 48 48" enable-background="new 0 0 48 48" xml:space="preserve">
<title>18 -Cinema Hall- (video, film, cinema, movie)</title>
<desc>Created with Sketch.</desc>
<g>
	<g transform="translate(-960.000000, -470.000000)">
		<g transform="translate(961.000000, 471.000000)">
			<path fill="none" stroke="#FFFFFF" stroke-width="2" stroke-linecap="round" stroke-linejoin="round" d="M13.4,40.76H7v-4.657
				c0-0.962,0.78-1.743,1.743-1.743h2.915c0.962,0,1.743,0.781,1.743,1.743V40.76L13.4,40.76z"/>
			<path fill="none" stroke="#FFFFFF" stroke-width="2" stroke-linecap="round" stroke-linejoin="round" d="M19.8,40.76h-6.4v-4.657
				c0-0.962,0.78-1.743,1.743-1.743h2.915c0.963,0,1.743,0.781,1.743,1.743V40.76L19.8,40.76z"/>
			<path fill="none" stroke="#FFFFFF" stroke-width="2" stroke-linecap="round" stroke-linejoin="round" d="M26.2,40.76h-6.4v-4.657
				c0-0.962,0.78-1.743,1.743-1.743h2.914c0.963,0,1.743,0.781,1.743,1.743V40.76L26.2,40.76z"/>
			<path fill="none" stroke="#FFFFFF" stroke-width="2" stroke-linecap="round" stroke-linejoin="round" d="M32.6,40.76H26.2v-4.657
				c0-0.962,0.78-1.743,1.743-1.743h2.914c0.963,0,1.742,0.781,1.742,1.743V40.76L32.6,40.76z"/>
			<path fill="none" stroke="#FFFFFF" stroke-width="2" stroke-linecap="round" stroke-linejoin="round" d="M39,40.76h-6.4v-4.657
				c0-0.962,0.781-1.743,1.743-1.743h2.915c0.962,0,1.742,0.781,1.742,1.743V40.76L39,40.76z"/>
			<polygon fill="none" stroke="#FFFFFF" stroke-width="2" stroke-linecap="round" stroke-linejoin="round" points="4.44,19 
				41.561,19 41.561,3.64 4.44,3.64 			"/>
			<path fill="none" stroke="#FFFFFF" stroke-width="2" stroke-linecap="round" stroke-linejoin="round" d="M15.143,34.359H16.6
				v-4.656c0-0.963-0.781-1.743-1.743-1.743h-2.914c-0.962,0-1.743,0.78-1.743,1.743v4.656h1.457c0.801,0,1.47,0.544,1.673,1.281
				h0.14C13.674,34.903,14.342,34.359,15.143,34.359L15.143,34.359z"/>
			<path fill="none" stroke="#FFFFFF" stroke-width="2" stroke-linecap="round" stroke-linejoin="round" d="M21.257,27.96h-2.914
				c-0.963,0-1.744,0.78-1.744,1.743v4.656h1.458c0.801,0,1.469,0.544,1.673,1.281h0.14c0.204-0.737,0.872-1.281,1.673-1.281H23
				v-4.656C23,28.74,22.22,27.96,21.257,27.96L21.257,27.96z"/>
			<path fill="none" stroke="#FFFFFF" stroke-width="2" stroke-linecap="round" stroke-linejoin="round" d="M27.943,34.359H29.4
				v-4.656c0-0.963-0.781-1.743-1.744-1.743h-2.913C23.78,27.96,23,28.74,23,29.703v4.656h1.457c0.801,0,1.469,0.544,1.673,1.281
				h0.14C26.475,34.903,27.142,34.359,27.943,34.359L27.943,34.359z"/>
			<path fill="none" stroke="#FFFFFF" stroke-width="2" stroke-linecap="round" stroke-linejoin="round" d="M34.343,34.359h1.458
				v-4.656c0-0.963-0.781-1.743-1.744-1.743h-2.914c-0.962,0-1.742,0.78-1.742,1.743v4.656h1.457c0.801,0,1.469,0.544,1.672,1.281
				h0.141C32.874,34.903,33.541,34.359,34.343,34.359L34.343,34.359z"/>
			<path fill="none" stroke="#FFFFFF" stroke-width="2" stroke-linecap="round" stroke-linejoin="round" d="M18.343,27.96H19.8
				v-4.657c0-0.963-0.781-1.742-1.743-1.742h-2.914c-0.962,0-1.743,0.779-1.743,1.742v4.657h1.457c0.962,0,1.743,0.78,1.743,1.743
				C16.6,28.74,17.38,27.96,18.343,27.96L18.343,27.96z"/>
			<path fill="none" stroke="#FFFFFF" stroke-width="2" stroke-linecap="round" stroke-linejoin="round" d="M24.743,27.96H26.2
				v-4.657c0-0.963-0.78-1.742-1.743-1.742h-2.914c-0.962,0-1.743,0.779-1.743,1.742v4.657h1.457c0.962,0,1.744,0.78,1.744,1.743
				C23,28.74,23.78,27.96,24.743,27.96L24.743,27.96z"/>
			<path fill="none" stroke="#FFFFFF" stroke-width="2" stroke-linecap="round" stroke-linejoin="round" d="M31.143,27.96H32.6
				v-4.657c0-0.963-0.78-1.742-1.742-1.742h-2.914c-0.963,0-1.743,0.779-1.743,1.742v4.657h1.456c0.963,0,1.744,0.78,1.744,1.743
				C29.4,28.74,30.181,27.96,31.143,27.96L31.143,27.96z"/>
			<path fill="none" stroke="#FFFFFF" stroke-width="2" stroke-linecap="round" stroke-linejoin="round" d="M36.439,3.905
				c0,5.147,1.82,8.739,5.121,8.739V3.64h-5.121V3.905L36.439,3.905z"/>
			<path fill="none" stroke="#FFFFFF" stroke-width="2" stroke-linecap="round" stroke-linejoin="round" d="M37.721,19
				c0,0-0.121-6.356,3.84-6.356V19H37.721L37.721,19z"/>
			<path fill="none" stroke="#FFFFFF" stroke-width="2" stroke-linecap="round" stroke-linejoin="round" d="M9.56,3.905
				c0,5.147-1.82,8.739-5.12,8.739V3.64h5.12V3.905L9.56,3.905z"/>
			<path fill="none" stroke="#FFFFFF" stroke-width="2" stroke-linecap="round" stroke-linejoin="round" d="M8.28,19
				c0,0,0.12-6.356-3.84-6.356V19H8.28L8.28,19z"/>
			<path fill="none" stroke="#FFFFFF" stroke-width="2" stroke-linecap="round" stroke-linejoin="round" d="M28.139,11.338
				C28.139,8.5,25.838,6.2,23,6.2c-2.837,0-5.138,2.3-5.138,5.138c0,2.838,2.3,5.138,5.138,5.138
				C25.838,16.476,28.139,14.176,28.139,11.338L28.139,11.338z"/>
			<polygon fill="none" stroke="#FFFFFF" stroke-width="2" stroke-linecap="round" stroke-linejoin="round" points="21.72,13.24 
				21.72,9.4 25.561,11.32 			"/>
		</g>
	</g>
</g>
</svg>
